<svg width="171" height="68" viewBox="0 0 171 68" fill="none" xmlns="http://www.w3.org/2000/svg">
<g filter="url(#filter0_d_0_1431)">
<path d="M161.171 18.3142C160.331 13.8386 156.572 10.4961 152.029 10.1836L14.6863 0.735158C8.90697 0.337571 4 4.91855 4 10.7116V50C4 55.5228 8.47716 60 14 60H156.947C163.21 60 167.931 54.3092 166.775 48.1542L161.171 18.3142Z" fill="white" fill-opacity="0.04" shape-rendering="crispEdges"/>
<path d="M160.68 18.4065C159.881 14.1547 156.311 10.9793 151.995 10.6824L14.652 1.23398C9.16162 0.856271 4.5 5.2082 4.5 10.7116V50C4.5 55.2467 8.7533 59.5 14 59.5H156.947C162.897 59.5 167.382 54.0937 166.284 48.2465L160.68 18.4065Z" stroke="white" shape-rendering="crispEdges"/>
</g>
<g filter="url(#filter1_d_0_1431)">
<path d="M30.4141 29.395V31.809H34.3071V34.053H30.4141V36.671H34.8171V39H27.5071V27.066H34.8171V29.395H30.4141ZM42.3144 39L40.4954 36.365L38.9654 39H35.8204L38.9484 34.155L35.7354 29.514H38.9994L40.8184 32.132L42.3484 29.514H45.4934L42.3144 34.291L45.5784 39H42.3144ZM49.6055 30.857C49.8889 30.415 50.2799 30.058 50.7785 29.786C51.2772 29.514 51.8609 29.378 52.5295 29.378C53.3115 29.378 54.0199 29.5763 54.6545 29.973C55.2892 30.3697 55.7879 30.9363 56.1505 31.673C56.5245 32.4097 56.7115 33.2653 56.7115 34.24C56.7115 35.2147 56.5245 36.076 56.1505 36.824C55.7879 37.5607 55.2892 38.133 54.6545 38.541C54.0199 38.9377 53.3115 39.136 52.5295 39.136C51.8722 39.136 51.2885 39 50.7785 38.728C50.2799 38.456 49.8889 38.1047 49.6055 37.674V43.522H46.6985V29.514H49.6055V30.857ZM53.7535 34.24C53.7535 33.5147 53.5495 32.948 53.1415 32.54C52.7449 32.1207 52.2519 31.911 51.6625 31.911C51.0845 31.911 50.5915 32.1207 50.1835 32.54C49.7869 32.9593 49.5885 33.5317 49.5885 34.257C49.5885 34.9823 49.7869 35.5547 50.1835 35.974C50.5915 36.3933 51.0845 36.603 51.6625 36.603C52.2405 36.603 52.7335 36.3933 53.1415 35.974C53.5495 35.5433 53.7535 34.9653 53.7535 34.24ZM61.1436 26.42V39H58.2366V26.42H61.1436ZM67.5683 39.136C66.639 39.136 65.8003 38.9377 65.0523 38.541C64.3156 38.1443 63.732 37.5777 63.3013 36.841C62.882 36.1043 62.6723 35.243 62.6723 34.257C62.6723 33.2823 62.8876 32.4267 63.3183 31.69C63.749 30.942 64.3383 30.3697 65.0863 29.973C65.8343 29.5763 66.673 29.378 67.6023 29.378C68.5316 29.378 69.3703 29.5763 70.1183 29.973C70.8663 30.3697 71.4556 30.942 71.8863 31.69C72.317 32.4267 72.5323 33.2823 72.5323 34.257C72.5323 35.2317 72.3113 36.093 71.8693 36.841C71.4386 37.5777 70.8436 38.1443 70.0843 38.541C69.3363 38.9377 68.4976 39.136 67.5683 39.136ZM67.5683 36.62C68.1236 36.62 68.594 36.416 68.9793 36.008C69.376 35.6 69.5743 35.0163 69.5743 34.257C69.5743 33.4977 69.3816 32.914 68.9963 32.506C68.6223 32.098 68.1576 31.894 67.6023 31.894C67.0356 31.894 66.5653 32.098 66.1913 32.506C65.8173 32.9027 65.6303 33.4863 65.6303 34.257C65.6303 35.0163 65.8116 35.6 66.1743 36.008C66.5483 36.416 67.013 36.62 67.5683 36.62ZM76.9815 31.095C77.3215 30.5737 77.7465 30.1657 78.2565 29.871C78.7665 29.565 79.3332 29.412 79.9565 29.412V32.489H79.1575C78.4322 32.489 77.8882 32.6477 77.5255 32.965C77.1628 33.271 76.9815 33.815 76.9815 34.597V39H74.0745V29.514H76.9815V31.095ZM90.288 34.104C90.288 34.376 90.271 34.6593 90.237 34.954H83.658C83.7033 35.5433 83.8903 35.9967 84.219 36.314C84.559 36.62 84.9727 36.773 85.46 36.773C86.1853 36.773 86.6897 36.467 86.973 35.855H90.067C89.9083 36.4783 89.6193 37.0393 89.2 37.538C88.792 38.0367 88.2763 38.4277 87.653 38.711C87.0297 38.9943 86.3327 39.136 85.562 39.136C84.6327 39.136 83.8053 38.9377 83.08 38.541C82.3547 38.1443 81.788 37.5777 81.38 36.841C80.972 36.1043 80.768 35.243 80.768 34.257C80.768 33.271 80.9663 32.4097 81.363 31.673C81.771 30.9363 82.3377 30.3697 83.063 29.973C83.7883 29.5763 84.6213 29.378 85.562 29.378C86.48 29.378 87.296 29.5707 88.01 29.956C88.724 30.3413 89.2793 30.891 89.676 31.605C90.084 32.319 90.288 33.152 90.288 34.104ZM87.313 33.339C87.313 32.8403 87.143 32.4437 86.803 32.149C86.463 31.8543 86.038 31.707 85.528 31.707C85.0407 31.707 84.627 31.8487 84.287 32.132C83.9583 32.4153 83.7543 32.8177 83.675 33.339H87.313ZM108.939 27.066V39H106.032V31.843L103.363 39H101.017L98.3311 31.826V39H95.4241V27.066H98.8581L102.207 35.328L105.522 27.066H108.939ZM115.348 39.136C114.418 39.136 113.58 38.9377 112.832 38.541C112.095 38.1443 111.511 37.5777 111.081 36.841C110.661 36.1043 110.452 35.243 110.452 34.257C110.452 33.2823 110.667 32.4267 111.098 31.69C111.528 30.942 112.118 30.3697 112.866 29.973C113.614 29.5763 114.452 29.378 115.382 29.378C116.311 29.378 117.15 29.5763 117.898 29.973C118.646 30.3697 119.235 30.942 119.666 31.69C120.096 32.4267 120.312 33.2823 120.312 34.257C120.312 35.2317 120.091 36.093 119.649 36.841C119.218 37.5777 118.623 38.1443 117.864 38.541C117.116 38.9377 116.277 39.136 115.348 39.136ZM115.348 36.62C115.903 36.62 116.373 36.416 116.759 36.008C117.155 35.6 117.354 35.0163 117.354 34.257C117.354 33.4977 117.161 32.914 116.776 32.506C116.402 32.098 115.937 31.894 115.382 31.894C114.815 31.894 114.345 32.098 113.971 32.506C113.597 32.9027 113.41 33.4863 113.41 34.257C113.41 35.0163 113.591 35.6 113.954 36.008C114.328 36.416 114.792 36.62 115.348 36.62ZM124.761 31.095C125.101 30.5737 125.526 30.1657 126.036 29.871C126.546 29.565 127.112 29.412 127.736 29.412V32.489H126.937C126.211 32.489 125.667 32.6477 125.305 32.965C124.942 33.271 124.761 33.815 124.761 34.597V39H121.854V29.514H124.761V31.095ZM138.067 34.104C138.067 34.376 138.05 34.6593 138.016 34.954H131.437C131.483 35.5433 131.67 35.9967 131.998 36.314C132.338 36.62 132.752 36.773 133.239 36.773C133.965 36.773 134.469 36.467 134.752 35.855H137.846C137.688 36.4783 137.399 37.0393 136.979 37.538C136.571 38.0367 136.056 38.4277 135.432 38.711C134.809 38.9943 134.112 39.136 133.341 39.136C132.412 39.136 131.585 38.9377 130.859 38.541C130.134 38.1443 129.567 37.5777 129.159 36.841C128.751 36.1043 128.547 35.243 128.547 34.257C128.547 33.271 128.746 32.4097 129.142 31.673C129.55 30.9363 130.117 30.3697 130.842 29.973C131.568 29.5763 132.401 29.378 133.341 29.378C134.259 29.378 135.075 29.5707 135.789 29.956C136.503 30.3413 137.059 30.891 137.455 31.605C137.863 32.319 138.067 33.152 138.067 34.104ZM135.092 33.339C135.092 32.8403 134.922 32.4437 134.582 32.149C134.242 31.8543 133.817 31.707 133.307 31.707C132.82 31.707 132.406 31.8487 132.066 32.132C131.738 32.4153 131.534 32.8177 131.454 33.339H135.092Z" fill="white"/>
</g>
<defs>
<filter id="filter0_d_0_1431" x="0" y="0.710938" width="170.95" height="67.2891" filterUnits="userSpaceOnUse" color-interpolation-filters="sRGB">
<feFlood flood-opacity="0" result="BackgroundImageFix"/>
<feColorMatrix in="SourceAlpha" type="matrix" values="0 0 0 0 0 0 0 0 0 0 0 0 0 0 0 0 0 0 127 0" result="hardAlpha"/>
<feOffset dy="4"/>
<feGaussianBlur stdDeviation="2"/>
<feComposite in2="hardAlpha" operator="out"/>
<feColorMatrix type="matrix" values="0 0 0 0 0 0 0 0 0 0 0 0 0 0 0 0 0 0 0.25 0"/>
<feBlend mode="normal" in2="BackgroundImageFix" result="effect1_dropShadow_0_1431"/>
<feBlend mode="normal" in="SourceGraphic" in2="effect1_dropShadow_0_1431" result="shape"/>
</filter>
<filter id="filter1_d_0_1431" x="23.5071" y="22.4199" width="118.56" height="25.1021" filterUnits="userSpaceOnUse" color-interpolation-filters="sRGB">
<feFlood flood-opacity="0" result="BackgroundImageFix"/>
<feColorMatrix in="SourceAlpha" type="matrix" values="0 0 0 0 0 0 0 0 0 0 0 0 0 0 0 0 0 0 127 0" result="hardAlpha"/>
<feOffset/>
<feGaussianBlur stdDeviation="2"/>
<feComposite in2="hardAlpha" operator="out"/>
<feColorMatrix type="matrix" values="0 0 0 0 1 0 0 0 0 1 0 0 0 0 1 0 0 0 0.25 0"/>
<feBlend mode="normal" in2="BackgroundImageFix" result="effect1_dropShadow_0_1431"/>
<feBlend mode="normal" in="SourceGraphic" in2="effect1_dropShadow_0_1431" result="shape"/>
</filter>
</defs>
</svg>
