<svg width="32" height="32" viewBox="0 0 32 32" fill="none" xmlns="http://www.w3.org/2000/svg">
<path d="M17.3332 26.5838C20.023 26.2416 22.4814 24.888 24.209 22.7982C25.9365 20.7084 26.8035 18.0392 26.6337 15.3331C26.464 12.627 25.2701 10.0872 23.2949 8.22968C21.3197 6.3722 18.7113 5.33653 15.9999 5.33317C13.2852 5.33115 10.6718 6.36429 8.69236 8.22207C6.71288 10.0799 5.51623 12.6225 5.34623 15.3319C5.17623 18.0413 6.04569 20.7135 7.77743 22.8042C9.50917 24.8948 11.9729 26.2465 14.6666 26.5838V18.6665H11.9999V15.9998H14.6666V13.7945C14.6666 12.0118 14.8532 11.3652 15.1999 10.7132C15.5414 10.0681 16.0692 9.54075 16.7146 9.19984C17.2239 8.9265 17.8572 8.7625 18.9639 8.69184C19.4026 8.66384 19.9706 8.6985 20.6679 8.7985V11.3318H19.9999C18.7772 11.3318 18.2719 11.3892 17.9706 11.5505C17.7908 11.643 17.6444 11.7894 17.5519 11.9692C17.3919 12.2705 17.3332 12.5692 17.3332 13.7932V15.9998H20.6666L19.9999 18.6665H17.3332V26.5838ZM15.9999 29.3332C8.63591 29.3332 2.66657 23.3638 2.66657 15.9998C2.66657 8.63584 8.63591 2.6665 15.9999 2.6665C23.3639 2.6665 29.3332 8.63584 29.3332 15.9998C29.3332 23.3638 23.3639 29.3332 15.9999 29.3332Z" fill="#E3E6FF"/>
</svg>
