<svg width="32" height="32" viewBox="0 0 32 32" fill="none" xmlns="http://www.w3.org/2000/svg">
<path d="M16 11.9998C14.9391 11.9998 13.9217 12.4213 13.1716 13.1714C12.4214 13.9216 12 14.939 12 15.9998C12 17.0607 12.4214 18.0781 13.1716 18.8283C13.9217 19.5784 14.9391 19.9998 16 19.9998C17.0609 19.9998 18.0783 19.5784 18.8284 18.8283C19.5786 18.0781 20 17.0607 20 15.9998C20 14.939 19.5786 13.9216 18.8284 13.1714C18.0783 12.4213 17.0609 11.9998 16 11.9998ZM16 9.33317C17.7681 9.33317 19.4638 10.0355 20.714 11.2858C21.9643 12.536 22.6667 14.2317 22.6667 15.9998C22.6667 17.7679 21.9643 19.4636 20.714 20.7139C19.4638 21.9641 17.7681 22.6665 16 22.6665C14.2319 22.6665 12.5362 21.9641 11.286 20.7139C10.0357 19.4636 9.33333 17.7679 9.33333 15.9998C9.33333 14.2317 10.0357 12.536 11.286 11.2858C12.5362 10.0355 14.2319 9.33317 16 9.33317ZM24.6667 8.99984C24.6667 9.44186 24.4911 9.86579 24.1785 10.1783C23.8659 10.4909 23.442 10.6665 23 10.6665C22.558 10.6665 22.134 10.4909 21.8215 10.1783C21.5089 9.86579 21.3333 9.44186 21.3333 8.99984C21.3333 8.55781 21.5089 8.13389 21.8215 7.82133C22.134 7.50877 22.558 7.33317 23 7.33317C23.442 7.33317 23.8659 7.50877 24.1785 7.82133C24.4911 8.13389 24.6667 8.55781 24.6667 8.99984ZM16 5.33317C12.7013 5.33317 12.1627 5.3425 10.628 5.4105C9.58266 5.45984 8.88133 5.59984 8.23066 5.85317C7.652 6.07717 7.23466 6.34517 6.79066 6.7905C6.37334 7.1937 6.05247 7.68595 5.852 8.2305C5.59866 8.88384 5.45866 9.58384 5.41066 10.6278C5.34133 12.0998 5.33333 12.6145 5.33333 15.9998C5.33333 19.2985 5.34266 19.8372 5.41066 21.3718C5.46 22.4158 5.6 23.1185 5.852 23.7678C6.07866 24.3478 6.34533 24.7652 6.788 25.2078C7.23733 25.6558 7.65466 25.9238 8.228 26.1452C8.88666 26.3998 9.588 26.5412 10.628 26.5892C12.1 26.6585 12.6147 26.6665 16 26.6665C19.2987 26.6665 19.8373 26.6572 21.372 26.5892C22.4147 26.5398 23.1173 26.3998 23.768 26.1478C24.3453 25.9225 24.7653 25.6545 25.208 25.2118C25.6573 24.7625 25.9253 24.3452 26.1467 23.7718C26.4 23.1145 26.5413 22.4118 26.5893 21.3718C26.6587 19.8998 26.6667 19.3852 26.6667 15.9998C26.6667 12.7012 26.6573 12.1625 26.5893 10.6278C26.54 9.58517 26.4 8.88117 26.1467 8.2305C25.9457 7.68651 25.6254 7.19445 25.2093 6.7905C24.8063 6.37297 24.314 6.05206 23.7693 5.85184C23.116 5.5985 22.4147 5.4585 21.372 5.4105C19.9 5.34117 19.3853 5.33317 16 5.33317ZM16 2.6665C19.6227 2.6665 20.0747 2.67984 21.496 2.7465C22.916 2.81317 23.8827 3.03584 24.7333 3.3665C25.6133 3.70517 26.3547 4.16384 27.096 4.90384C27.774 5.57037 28.2986 6.37662 28.6333 7.2665C28.9627 8.11584 29.1867 9.08384 29.2533 10.5038C29.316 11.9252 29.3333 12.3772 29.3333 15.9998C29.3333 19.6225 29.32 20.0745 29.2533 21.4958C29.1867 22.9158 28.9627 23.8825 28.6333 24.7332C28.2996 25.6235 27.7748 26.43 27.096 27.0958C26.4293 27.7736 25.6231 28.2982 24.7333 28.6332C23.884 28.9625 22.916 29.1865 21.496 29.2532C20.0747 29.3158 19.6227 29.3332 16 29.3332C12.3773 29.3332 11.9253 29.3198 10.504 29.2532C9.084 29.1865 8.11733 28.9625 7.26666 28.6332C6.37643 28.2991 5.57003 27.7744 4.904 27.0958C4.22587 26.4294 3.70124 25.6231 3.36666 24.7332C3.036 23.8838 2.81333 22.9158 2.74666 21.4958C2.684 20.0745 2.66666 19.6225 2.66666 15.9998C2.66666 12.3772 2.68 11.9252 2.74666 10.5038C2.81333 9.0825 3.036 8.11717 3.36666 7.2665C3.70031 6.37608 4.22507 5.5696 4.904 4.90384C5.57023 4.22548 6.37657 3.70081 7.26666 3.3665C8.11733 3.03584 9.08266 2.81317 10.504 2.7465C11.9253 2.68384 12.3773 2.6665 16 2.6665Z" fill="#E3E6FF"/>
</svg>
