<svg width="1260" height="177" viewBox="0 0 1260 177" fill="none" xmlns="http://www.w3.org/2000/svg">
<g filter="url(#filter0_d_0_1398)">
<path d="M4.77965 16.7089C3.83112 7.80334 10.8473 0.0563651 19.803 0.120692L1241.11 8.89303C1249.35 8.95223 1256 15.6504 1256 23.8926V154C1256 162.284 1249.28 169 1241 169H34.4872C26.8179 169 20.3838 163.215 19.5716 155.589L4.77965 16.7089Z" fill="url(#paint0_linear_0_1398)"/>
<path d="M5.77403 16.603C4.88874 8.29114 11.4371 1.06063 19.7958 1.12067L1241.1 9.89301C1248.79 9.94826 1255 16.1999 1255 23.8926V154C1255 161.732 1248.73 168 1241 168H34.4872C27.3292 168 21.3241 162.601 20.5659 155.483L5.77403 16.603Z" stroke="white" stroke-width="2"/>
</g>
<g clip-path="url(#clip0_0_1398)">
<path d="M239.684 130.005L225.285 101.703C225.171 101.445 225.11 101.174 225.106 100.9C225.077 100.322 225.329 99.7579 225.808 99.328C226.055 99.1227 226.354 98.9628 226.684 98.8589C227.014 98.755 227.367 98.7097 227.721 98.7259C228.256 98.732 228.775 98.8722 229.208 99.1273C229.658 99.4005 230.01 99.7663 230.226 100.187L243.924 127.875L257.621 100.187C257.841 99.7649 258.198 99.399 258.653 99.1273C259.086 98.8722 259.605 98.732 260.14 98.7259C260.491 98.7113 260.842 98.7574 261.17 98.8612C261.497 98.9651 261.794 99.1242 262.04 99.328C262.523 99.7562 262.78 100.321 262.755 100.9C262.751 101.174 262.69 101.445 262.577 101.703L248.177 130.005C247.931 130.627 247.451 131.17 246.804 131.56C246.157 131.95 245.377 132.167 244.571 132.179H243.29C242.484 132.167 241.704 131.95 241.057 131.56C240.41 131.17 239.93 130.627 239.684 130.005Z" fill="white"/>
<path d="M268.881 131.31C268.637 131.111 268.445 130.874 268.317 130.613C268.19 130.352 268.129 130.073 268.138 129.793V101.134C268.129 100.847 268.19 100.562 268.318 100.294C268.445 100.026 268.637 99.7812 268.881 99.5733C269.121 99.3677 269.412 99.2058 269.734 99.0981C270.057 98.9904 270.404 98.9396 270.753 98.9488H294.156C294.485 98.9423 294.813 98.9926 295.116 99.0965C295.42 99.2003 295.693 99.3552 295.918 99.551C296.157 99.7344 296.346 99.9559 296.474 100.202C296.602 100.447 296.666 100.712 296.661 100.978C296.67 101.242 296.609 101.505 296.48 101.747C296.352 101.99 296.16 102.207 295.918 102.383C295.684 102.571 295.406 102.718 295.102 102.818C294.797 102.917 294.47 102.967 294.142 102.963H273.451V113.401H292.063C292.393 113.394 292.72 113.445 293.024 113.548C293.328 113.652 293.601 113.807 293.825 114.003C294.061 114.188 294.249 114.41 294.377 114.655C294.505 114.9 294.57 115.164 294.569 115.43C294.578 115.694 294.516 115.957 294.388 116.199C294.26 116.442 294.068 116.659 293.825 116.835C293.593 117.021 293.318 117.168 293.016 117.268C292.713 117.367 292.389 117.417 292.063 117.415H273.451V127.897H294.142C294.474 127.889 294.804 127.939 295.11 128.043C295.416 128.147 295.692 128.302 295.918 128.5C296.158 128.684 296.349 128.908 296.477 129.155C296.605 129.403 296.667 129.67 296.661 129.938C296.67 130.202 296.609 130.464 296.48 130.707C296.352 130.95 296.16 131.167 295.918 131.343C295.683 131.528 295.405 131.674 295.1 131.772C294.795 131.869 294.469 131.917 294.142 131.912H270.753C270.405 131.932 270.056 131.889 269.732 131.784C269.408 131.68 269.117 131.518 268.881 131.31Z" fill="white"/>
<path d="M228.547 129.202L214.134 100.901C213.888 100.281 213.41 99.7382 212.766 99.3485C212.122 98.9588 211.344 98.7412 210.541 98.7261H209.274C208.468 98.7389 207.687 98.9554 207.041 99.3453C206.394 99.7351 205.914 100.279 205.667 100.901L199.404 113.234H194.655C193.972 113.24 193.319 113.463 192.838 113.855C192.356 114.247 192.084 114.777 192.081 115.33V115.353C192.084 115.906 192.356 116.436 192.838 116.828C193.319 117.22 193.972 117.443 194.655 117.449H197.201L191.227 129.202C191.113 129.46 191.053 129.731 191.048 130.005C191.02 130.583 191.272 131.148 191.75 131.577C191.997 131.783 192.296 131.943 192.626 132.047C192.956 132.151 193.31 132.196 193.664 132.18C194.198 132.174 194.718 132.033 195.15 131.778C195.601 131.505 195.952 131.139 196.169 130.719L202.763 117.449H207.292C207.975 117.443 208.628 117.22 209.109 116.828C209.591 116.436 209.863 115.906 209.866 115.353V115.297C209.863 114.744 209.591 114.214 209.109 113.821C208.628 113.429 207.975 113.206 207.292 113.2H204.842L209.908 103.03L223.605 130.719C223.822 131.139 224.173 131.505 224.623 131.778C225.056 132.033 225.575 132.174 226.11 132.18C226.466 132.197 226.822 132.153 227.155 132.049C227.487 131.945 227.788 131.784 228.037 131.577C228.51 131.146 228.757 130.582 228.726 130.005C228.743 129.731 228.687 129.457 228.56 129.202H228.547Z" fill="white"/>
<path d="M185.514 129.202L171.115 100.901C170.868 100.277 170.386 99.7321 169.736 99.3421C169.087 98.952 168.303 98.7366 167.495 98.7261H166.228C165.422 98.7389 164.642 98.9554 163.995 99.3453C163.348 99.7351 162.868 100.279 162.622 100.901L156.358 113.234H151.609C150.926 113.24 150.273 113.463 149.792 113.855C149.31 114.247 149.038 114.777 149.035 115.33V115.353C149.038 115.906 149.31 116.436 149.792 116.828C150.273 117.22 150.926 117.443 151.609 117.449H154.156L148.181 129.202C148.067 129.46 148.007 129.731 148.002 130.005C147.974 130.583 148.226 131.148 148.704 131.577C148.951 131.783 149.25 131.943 149.58 132.047C149.91 132.151 150.264 132.196 150.618 132.18C151.153 132.174 151.672 132.033 152.104 131.778C152.555 131.505 152.906 131.139 153.123 130.719L159.717 117.449H164.274C164.959 117.446 165.615 117.224 166.1 116.832C166.584 116.439 166.858 115.908 166.861 115.353V115.297C166.858 114.742 166.584 114.21 166.1 113.818C165.615 113.425 164.959 113.203 164.274 113.2H161.837L166.861 103.03L180.559 130.719C180.775 131.139 181.127 131.505 181.577 131.778C182.01 132.033 182.529 132.174 183.064 132.18C183.42 132.197 183.776 132.153 184.109 132.049C184.442 131.945 184.743 131.784 184.991 131.577C185.464 131.146 185.711 130.582 185.68 130.005C185.697 129.731 185.641 129.457 185.514 129.202Z" fill="white"/>
</g>
<g clip-path="url(#clip1_0_1398)">
<path fill-rule="evenodd" clip-rule="evenodd" d="M708.577 101.263H714.982L721.731 124.43L728.48 101.263H734.737L725.179 130.989H718.135L708.577 101.263Z" fill="white"/>
<path fill-rule="evenodd" clip-rule="evenodd" d="M755.749 116.563C755.749 111.443 752.887 107.795 748.592 107.795C744.298 107.795 741.386 111.443 741.386 116.563C741.386 121.683 744.298 125.332 748.592 125.332C752.887 125.332 755.749 121.683 755.749 116.563ZM735.463 116.857C735.463 107.618 740.892 101.263 748.642 101.263C756.292 101.263 761.623 107.441 761.623 116.799V131.099H756.243V125.39C754.762 129.687 751.455 131.864 747.605 131.864C741.682 131.864 735.463 126.803 735.463 116.857Z" fill="white"/>
<path fill-rule="evenodd" clip-rule="evenodd" d="M765.983 115.477C765.983 105.519 770.944 100.388 778.336 100.388C785.727 100.388 790.689 105.458 790.689 115.477V130.989H784.664V115.477C784.664 109.804 782.133 107.088 778.336 107.088C774.539 107.088 772.007 109.804 772.007 115.477V130.989H765.983V115.477Z" fill="white"/>
<path fill-rule="evenodd" clip-rule="evenodd" d="M794.321 119.633V90.771H800.316V101.316H813.158V107.823H800.316V119.633C800.316 123.61 802.027 125.176 804.495 125.176C806.962 125.176 808.675 123.669 808.675 119.633V118.849H814.668V119.633C814.668 127.887 810.539 131.864 804.495 131.864C798.452 131.864 794.321 127.887 794.321 119.633Z" fill="white"/>
<path fill-rule="evenodd" clip-rule="evenodd" d="M820.845 96.8909C823.171 96.8909 824.841 94.8943 824.841 92.1124C824.841 89.3294 823.171 87.2734 820.845 87.2734C818.517 87.2734 816.848 89.3294 816.848 92.1124C816.848 94.8943 818.517 96.8909 820.845 96.8909Z" fill="white"/>
<path fill-rule="evenodd" clip-rule="evenodd" d="M817.574 130.989H823.387V101.263H817.574V130.989Z" fill="white"/>
<path fill-rule="evenodd" clip-rule="evenodd" d="M828.197 122.372H834.241C834.292 124.342 835.753 125.655 838.674 125.655C841.747 125.655 843.057 124.163 843.057 122.372C843.057 120.104 840.841 119.805 838.171 119.387C834.341 118.79 828.7 118.014 828.7 110.791C828.7 104.762 832.579 100.822 838.574 100.822C844.669 100.822 848.396 104.881 848.548 110.075H842.604C842.453 108.284 841.041 107.03 838.674 107.03C836.055 107.03 834.744 108.523 834.744 110.254C834.744 112.522 837.013 112.881 839.682 113.298C843.007 113.836 849.102 114.612 849.102 121.954C849.102 127.924 845.022 131.863 838.674 131.863C832.328 131.863 828.347 127.864 828.197 122.372Z" fill="white"/>
<path fill-rule="evenodd" clip-rule="evenodd" d="M694.739 100.679C692.33 100.679 690.141 101.298 688.26 102.411C687.251 103.009 686.33 103.749 685.513 104.615C685.091 105.063 684.698 105.545 684.332 106.057L673.129 119.888C673.129 119.888 669.322 125.094 666.025 125.094C661.641 125.094 658.669 121.39 658.67 116.196C658.67 115.736 658.708 115.288 658.766 114.845C659.306 110.655 662.293 107.335 665.961 107.305C668.605 107.284 670.76 108.584 672.062 110.735L676.136 105.757C673.801 102.596 670.274 100.679 666.025 100.679C658.167 100.679 652.625 107.246 652.625 116.2C652.625 121.064 654.263 125.222 657.018 128.006C658.399 129.507 660.301 130.651 662.497 131.247C662.511 131.251 662.525 131.256 662.539 131.26C662.673 131.296 662.809 131.327 662.945 131.359C663.924 131.594 664.952 131.72 666.025 131.72C666.201 131.72 666.371 131.703 666.545 131.696C666.561 131.695 666.576 131.694 666.592 131.694C667.325 131.663 668.037 131.577 668.727 131.425C671.242 130.899 673.414 129.66 674.949 127.986C674.95 127.984 674.952 127.983 674.954 127.982C675.06 127.881 675.156 127.765 675.254 127.653C675.303 127.597 675.357 127.547 675.404 127.489L687.73 112.107L689.081 110.349C690.176 109.052 691.849 107.231 694.995 107.282C699.013 107.348 702.127 111.419 702.126 116.181C702.124 121.372 699.467 124.997 695.085 124.997C692.234 124.997 689.875 123.454 688.569 120.95C687.868 119.607 687.466 117.99 687.466 116.176C687.466 116.135 687.47 116.096 687.47 116.055L682.397 122.563C682.88 123.926 683.522 125.172 684.3 126.278C686.678 129.659 690.342 131.72 694.739 131.72C702.597 131.72 708.138 125.154 708.138 116.2C708.138 107.246 702.597 100.679 694.739 100.679Z" fill="white"/>
</g>
<g clip-path="url(#clip2_0_1398)">
<path d="M387.924 145.456C403.205 145.456 415.592 132.512 415.592 116.545C415.592 100.578 403.205 87.6338 387.924 87.6338C372.644 87.6338 360.256 100.578 360.256 116.545C360.256 132.512 372.644 145.456 387.924 145.456Z" fill="white" fill-opacity="0.05"/>
<path d="M409.801 114.5C410.004 110.418 407.051 107.711 403.718 105.852L401.551 118.137C403.051 118.056 403.785 118.606 404.051 118.864C404.384 119.188 405.218 120.157 404.218 121.693C406.301 121.37 409.555 119.43 409.801 114.5Z" fill="white"/>
<path fill-rule="evenodd" clip-rule="evenodd" d="M382.63 99.8184L380.209 97.2628C383.853 96.7956 393.47 97.3947 402.779 103.528C402.936 104.187 402.779 105.177 402.779 105.177L403.56 105.589C404.237 106.606 405.388 109.497 404.576 112.926C403.764 116.355 402.363 117.817 401.764 118.119C400.515 118.119 398.39 118.878 397.703 122.241C397.016 125.605 395.699 126.336 395.126 126.281L381.38 126.446L372.321 120.84L370.993 109.216L373.57 105.589L378.178 101.632L381.458 100.231L382.63 99.8184ZM398.864 104.62C398.258 105.283 397.691 105.601 397.529 105.688C393.99 104.897 392.715 102.973 392.715 102.973C396.053 102.952 399.067 103.786 401.271 105.197C401.271 105.197 400.078 104.791 398.864 104.62Z" fill="white"/>
<path fill-rule="evenodd" clip-rule="evenodd" d="M398.111 122.521C395.677 123.757 392.791 124.472 389.696 124.472C380.998 124.472 373.946 118.821 373.946 111.849C373.946 106.699 377.794 102.27 383.311 100.307C372.818 100.932 364.386 109.65 364.386 120.407C364.386 132.821 375.086 143.079 388.286 143.079C398.142 143.079 406.346 137.169 410.636 129.262C404.734 130.635 397.746 128.024 398.111 122.521Z" fill="white"/>
<path fill-rule="evenodd" clip-rule="evenodd" d="M481.866 105.297C480.212 103.485 477.676 102.415 474.442 102.415H462.974V131.232H467.495L467.494 122.358L467.49 122.36V115.934L467.494 115.934L467.495 107.026H474.074C477.416 107.026 479.358 108.634 479.403 111.691L479.404 111.884L479.401 112.084C479.31 114.931 477.272 116.7 474.111 116.7L472.165 116.699L469.837 121.187L473.155 121.187L479.477 131.232H484.844L477.896 120.323L478.128 120.245C481.533 119.059 483.944 116.289 483.998 111.749L483.999 111.513C483.999 109.002 483.226 106.902 481.866 105.297ZM540.772 106.263C538.13 103.793 535.342 102.416 530.902 102.416C523.21 102.416 517.779 108.994 517.662 116.819L517.659 117.158C517.659 125.42 522.943 131.738 530.977 131.738C535.526 131.738 539.121 129.713 541.688 127.324V115.416L537.323 119.791V125.056C535.746 126.352 533.582 127.202 531.124 127.202C525.955 127.202 522.496 123.034 522.395 117.333L522.392 116.996C522.392 111.569 526.025 107.033 530.72 107.033C533.948 107.033 535.93 108.167 537.91 110.03L540.772 106.263ZM573.347 116.996C573.347 109.017 567.845 102.416 559.956 102.416C552.154 102.416 546.613 108.995 546.494 116.821L546.493 117.158C546.493 125.137 551.997 131.738 559.883 131.738C567.686 131.738 573.226 125.159 573.344 117.333L573.347 116.996ZM457.531 131.252L446.232 102.699H442.05L430.75 131.252L435.262 131.252L444.067 108.653L452.938 131.252L457.531 131.252ZM515.729 131.252L504.43 102.699H500.248L488.948 131.252L493.46 131.252L502.266 108.653L511.136 131.252L515.729 131.252ZM596.155 122.504L582.398 102.902H578.215V131.252H582.654V111.083L596.815 131.252H600.594V102.902H596.155V122.504ZM551.226 116.996C551.226 111.488 554.784 107.033 559.883 107.033C564.944 107.033 568.508 111.437 568.611 116.835L568.614 117.158C568.614 122.666 565.056 127.121 559.956 127.121C554.896 127.121 551.332 122.717 551.227 117.319L551.226 116.996Z" fill="white"/>
</g>
<g clip-path="url(#clip3_0_1398)">
<path d="M916.164 126.352C907.831 126.352 901.796 122.46 901.796 115.541C901.796 108.622 908.405 104.514 916.452 104.514C924.498 104.514 930.82 108.406 930.82 115.324C930.82 122.243 924.211 126.352 916.164 126.352ZM916.164 109.703C912.429 109.703 910.417 111.865 910.417 115.541C910.417 119 912.429 121.162 916.164 121.162C919.9 121.162 921.912 119 921.912 115.541C921.912 111.865 919.9 109.703 916.164 109.703Z" fill="white"/>
<path d="M968.178 113.595C968.178 111.216 966.741 110.352 964.442 110.352C962.718 110.352 961.281 111 960.132 111.649V125.703H951.223V113.595C951.223 111.216 949.786 110.352 947.488 110.352C945.763 110.352 944.326 110.784 943.177 111.649V125.703H934.269V104.946H943.177V107.541C945.476 105.595 948.35 104.514 951.798 104.514C955.246 104.514 958.12 105.811 959.557 108.189C962.143 106.027 965.304 104.514 969.04 104.514C974.213 104.514 977.661 107.108 977.661 111.649V125.703H968.753L968.178 113.595Z" fill="white"/>
<path d="M986.282 102.351C983.121 102.351 981.11 101.054 981.11 98.6757C981.11 96.2973 983.121 95 986.282 95C989.731 95 991.455 96.2973 991.455 98.6757C991.742 101.054 989.731 102.351 986.282 102.351ZM981.684 104.946H990.593V125.703H981.684V104.946Z" fill="white"/>
<path d="M1005.25 126.351C1001.51 126.351 996.627 125.702 993.754 124.621L995.478 119.865C998.639 121.162 1002.09 121.811 1005.54 121.811C1008.12 121.811 1009.27 121.162 1009.27 120.081C1009.27 119 1007.83 118.567 1004.67 117.919C998.352 117.054 994.329 115.324 994.329 111.216C994.329 107.324 998.639 104.729 1006.4 104.729C1010.13 104.729 1014.73 105.594 1017.32 106.459L1015.59 111.216C1012.43 110.135 1008.7 109.486 1006.11 109.486C1003.81 109.486 1002.66 109.919 1002.66 111C1002.66 112.081 1004.39 112.513 1007.26 112.946C1013.58 114.027 1017.61 115.54 1017.61 119.648C1017.61 123.324 1013.29 126.351 1005.25 126.351Z" fill="white"/>
<path d="M1035.42 121.378C1038.3 121.378 1041.46 120.513 1044.33 119.432L1045.19 124.621C1042.32 125.702 1038.58 126.351 1034.56 126.351C1025.36 126.351 1019.33 122.459 1019.33 115.757C1019.33 109.054 1025.36 104.729 1033.99 104.729C1041.74 104.729 1046.05 108.189 1046.05 113.162C1046.05 114.243 1045.77 115.973 1045.48 116.838L1028.24 117.054C1028.53 119.865 1030.82 121.378 1035.42 121.378ZM1037.72 113.162C1037.72 110.784 1036.28 109.27 1033.7 109.27C1030.54 109.27 1028.81 111.216 1028.53 113.594H1038.01V113.162H1037.72Z" fill="white"/>
<path d="M1062.72 127.865C1054.68 127.865 1048.35 132.622 1048.35 138.676C1048.35 144.73 1054.96 149.486 1062.72 149.486C1070.77 149.486 1077.09 144.73 1077.09 138.676C1077.38 132.622 1070.77 127.865 1062.72 127.865ZM1062.72 146.243C1057.26 146.243 1052.66 142.784 1052.66 138.676C1052.66 134.567 1057.26 131.108 1062.72 131.108C1068.18 131.108 1072.78 134.567 1072.78 138.676C1073.07 142.784 1068.47 146.243 1062.72 146.243Z" fill="white"/>
<path d="M1093.76 104.514C1085.71 104.514 1079.39 109.27 1079.39 115.324C1079.39 121.379 1086 126.135 1093.76 126.135C1101.8 126.135 1108.13 121.379 1108.13 115.324C1108.13 109.487 1101.8 104.514 1093.76 104.514ZM1093.76 123.108C1088.3 123.108 1083.7 119.649 1083.7 115.541C1083.7 111.433 1088.3 107.973 1093.76 107.973C1099.22 107.973 1103.82 111.433 1103.82 115.541C1103.82 119.649 1099.22 123.108 1093.76 123.108Z" fill="white"/>
<path d="M1062.72 104.514C1054.68 104.514 1048.35 109.27 1048.35 115.324C1048.35 121.379 1054.96 126.135 1062.72 126.135C1070.77 126.135 1077.09 121.379 1077.09 115.324C1077.09 112.514 1075.65 109.703 1073.07 107.757H1077.09V104.514H1062.72ZM1073.07 115.541C1073.07 119.649 1068.47 123.108 1063.01 123.108C1057.55 123.108 1052.95 119.649 1052.95 115.541C1052.95 111.433 1057.55 107.973 1063.01 107.973C1068.47 107.973 1073.07 111.216 1073.07 115.541Z" fill="white"/>
</g>
<g filter="url(#filter1_d_0_1398)">
<path d="M286.608 46.48H280.112V43.4H296.744V46.48H290.248V63H286.608V46.48ZM302.116 50.232C303.124 48.664 304.898 47.88 307.436 47.88V51.212C307.138 51.156 306.867 51.128 306.624 51.128C305.262 51.128 304.198 51.5293 303.432 52.332C302.667 53.116 302.284 54.2547 302.284 55.748V63H298.784V48.048H302.116V50.232ZM325.018 48.048V63H321.686V61.096C321.126 61.768 320.426 62.2907 319.586 62.664C318.746 63.0187 317.841 63.196 316.87 63.196C314.873 63.196 313.295 62.6453 312.138 61.544C310.999 60.424 310.43 58.772 310.43 56.588V48.048H313.93V56.112C313.93 57.456 314.229 58.464 314.826 59.136C315.442 59.7893 316.31 60.116 317.43 60.116C318.681 60.116 319.67 59.7333 320.398 58.968C321.145 58.184 321.518 57.064 321.518 55.608V48.048H325.018ZM334.221 63.196C333.007 63.196 331.822 63.0373 330.665 62.72C329.507 62.4027 328.583 62.0013 327.893 61.516L329.237 58.856C329.909 59.304 330.711 59.668 331.645 59.948C332.597 60.2093 333.53 60.34 334.445 60.34C336.535 60.34 337.581 59.7893 337.581 58.688C337.581 58.1653 337.31 57.8013 336.769 57.596C336.246 57.3907 335.397 57.1947 334.221 57.008C332.989 56.8213 331.981 56.6067 331.197 56.364C330.431 56.1213 329.759 55.7013 329.181 55.104C328.621 54.488 328.341 53.6387 328.341 52.556C328.341 51.1373 328.929 50.008 330.105 49.168C331.299 48.3093 332.905 47.88 334.921 47.88C335.947 47.88 336.974 48.0013 338.001 48.244C339.027 48.468 339.867 48.776 340.521 49.168L339.177 51.828C337.907 51.0813 336.479 50.708 334.893 50.708C333.866 50.708 333.082 50.8667 332.541 51.184C332.018 51.4827 331.757 51.884 331.757 52.388C331.757 52.948 332.037 53.3493 332.597 53.592C333.175 53.816 334.062 54.0307 335.257 54.236C336.451 54.4227 337.431 54.6373 338.197 54.88C338.962 55.1227 339.615 55.5333 340.157 56.112C340.717 56.6907 340.997 57.512 340.997 58.576C340.997 59.976 340.39 61.096 339.177 61.936C337.963 62.776 336.311 63.196 334.221 63.196ZM352.999 62.188C352.588 62.524 352.084 62.776 351.487 62.944C350.908 63.112 350.292 63.196 349.639 63.196C347.996 63.196 346.727 62.7667 345.831 61.908C344.935 61.0493 344.487 59.7987 344.487 58.156V50.96H342.023V48.16H344.487V44.744H347.987V48.16H351.991V50.96H347.987V58.072C347.987 58.8 348.164 59.36 348.519 59.752C348.874 60.1253 349.387 60.312 350.059 60.312C350.843 60.312 351.496 60.1067 352.019 59.696L352.999 62.188ZM369.442 55.608C369.442 55.8507 369.423 56.196 369.386 56.644H357.654C357.859 57.7453 358.391 58.6227 359.25 59.276C360.127 59.9107 361.21 60.228 362.498 60.228C364.141 60.228 365.494 59.6867 366.558 58.604L368.434 60.76C367.762 61.5627 366.913 62.1693 365.886 62.58C364.859 62.9907 363.702 63.196 362.414 63.196C360.771 63.196 359.325 62.8693 358.074 62.216C356.823 61.5627 355.853 60.6573 355.162 59.5C354.49 58.324 354.154 56.9987 354.154 55.524C354.154 54.068 354.481 52.7613 355.134 51.604C355.806 50.428 356.73 49.5133 357.906 48.86C359.082 48.2067 360.407 47.88 361.882 47.88C363.338 47.88 364.635 48.2067 365.774 48.86C366.931 49.4947 367.827 50.4 368.462 51.576C369.115 52.7333 369.442 54.0773 369.442 55.608ZM361.882 50.68C360.762 50.68 359.81 51.016 359.026 51.688C358.261 52.3413 357.794 53.2187 357.626 54.32H366.11C365.961 53.2373 365.503 52.36 364.738 51.688C363.973 51.016 363.021 50.68 361.882 50.68ZM387.448 42.224V63H384.088V61.068C383.509 61.7773 382.79 62.3093 381.932 62.664C381.092 63.0187 380.158 63.196 379.132 63.196C377.694 63.196 376.397 62.8787 375.24 62.244C374.101 61.6093 373.205 60.7133 372.552 59.556C371.898 58.38 371.572 57.036 371.572 55.524C371.572 54.012 371.898 52.6773 372.552 51.52C373.205 50.3627 374.101 49.4667 375.24 48.832C376.397 48.1973 377.694 47.88 379.132 47.88C380.121 47.88 381.026 48.048 381.848 48.384C382.669 48.72 383.369 49.224 383.948 49.896V42.224H387.448ZM379.552 60.2C380.392 60.2 381.148 60.0133 381.82 59.64C382.492 59.248 383.024 58.6973 383.416 57.988C383.808 57.2787 384.004 56.4573 384.004 55.524C384.004 54.5907 383.808 53.7693 383.416 53.06C383.024 52.3507 382.492 51.8093 381.82 51.436C381.148 51.044 380.392 50.848 379.552 50.848C378.712 50.848 377.956 51.044 377.284 51.436C376.612 51.8093 376.08 52.3507 375.688 53.06C375.296 53.7693 375.1 54.5907 375.1 55.524C375.1 56.4573 375.296 57.2787 375.688 57.988C376.08 58.6973 376.612 59.248 377.284 59.64C377.956 60.0133 378.712 60.2 379.552 60.2ZM408.053 47.88C409.509 47.88 410.806 48.1973 411.945 48.832C413.102 49.4667 414.007 50.3627 414.661 51.52C415.314 52.6773 415.641 54.012 415.641 55.524C415.641 57.036 415.314 58.38 414.661 59.556C414.007 60.7133 413.102 61.6093 411.945 62.244C410.806 62.8787 409.509 63.196 408.053 63.196C407.026 63.196 406.083 63.0187 405.225 62.664C404.385 62.3093 403.675 61.7773 403.097 61.068V63H399.765V42.224H403.265V49.868C403.862 49.2147 404.562 48.72 405.365 48.384C406.186 48.048 407.082 47.88 408.053 47.88ZM407.661 60.2C408.949 60.2 410.003 59.7707 410.825 58.912C411.665 58.0533 412.085 56.924 412.085 55.524C412.085 54.124 411.665 52.9947 410.825 52.136C410.003 51.2773 408.949 50.848 407.661 50.848C406.821 50.848 406.065 51.044 405.393 51.436C404.721 51.8093 404.189 52.3507 403.797 53.06C403.405 53.7693 403.209 54.5907 403.209 55.524C403.209 56.4573 403.405 57.2787 403.797 57.988C404.189 58.6973 404.721 59.248 405.393 59.64C406.065 60.0133 406.821 60.2 407.661 60.2ZM432.55 48.048L425.55 64.204C424.897 65.828 424.103 66.9667 423.17 67.62C422.237 68.292 421.107 68.628 419.782 68.628C419.035 68.628 418.298 68.5067 417.57 68.264C416.842 68.0213 416.245 67.6853 415.778 67.256L417.178 64.68C417.514 64.9973 417.906 65.2493 418.354 65.436C418.821 65.6227 419.287 65.716 419.754 65.716C420.37 65.716 420.874 65.5573 421.266 65.24C421.677 64.9227 422.05 64.3907 422.386 63.644L422.638 63.056L416.114 48.048H419.754L424.458 59.108L429.19 48.048H432.55ZM442.812 43.4H446.452V59.92H456.7V63H442.812V43.4ZM473.157 55.608C473.157 55.8507 473.138 56.196 473.101 56.644H461.369C461.574 57.7453 462.106 58.6227 462.965 59.276C463.842 59.9107 464.925 60.228 466.213 60.228C467.855 60.228 469.209 59.6867 470.273 58.604L472.149 60.76C471.477 61.5627 470.627 62.1693 469.601 62.58C468.574 62.9907 467.417 63.196 466.129 63.196C464.486 63.196 463.039 62.8693 461.789 62.216C460.538 61.5627 459.567 60.6573 458.877 59.5C458.205 58.324 457.869 56.9987 457.869 55.524C457.869 54.068 458.195 52.7613 458.849 51.604C459.521 50.428 460.445 49.5133 461.621 48.86C462.797 48.2067 464.122 47.88 465.597 47.88C467.053 47.88 468.35 48.2067 469.489 48.86C470.646 49.4947 471.542 50.4 472.177 51.576C472.83 52.7333 473.157 54.0773 473.157 55.608ZM465.597 50.68C464.477 50.68 463.525 51.016 462.741 51.688C461.975 52.3413 461.509 53.2187 461.341 54.32H469.825C469.675 53.2373 469.218 52.36 468.453 51.688C467.687 51.016 466.735 50.68 465.597 50.68ZM481.821 47.88C484.023 47.88 485.703 48.412 486.861 49.476C488.037 50.5213 488.625 52.108 488.625 54.236V63H485.321V61.18C484.891 61.8333 484.275 62.3373 483.473 62.692C482.689 63.028 481.737 63.196 480.617 63.196C479.497 63.196 478.517 63.0093 477.677 62.636C476.837 62.244 476.183 61.712 475.717 61.04C475.269 60.3493 475.045 59.5747 475.045 58.716C475.045 57.372 475.539 56.2987 476.529 55.496C477.537 54.6747 479.114 54.264 481.261 54.264H485.125V54.04C485.125 52.9947 484.807 52.192 484.173 51.632C483.557 51.072 482.633 50.792 481.401 50.792C480.561 50.792 479.73 50.9227 478.909 51.184C478.106 51.4453 477.425 51.8093 476.865 52.276L475.493 49.728C476.277 49.1307 477.219 48.6733 478.321 48.356C479.422 48.0387 480.589 47.88 481.821 47.88ZM481.345 60.648C482.222 60.648 482.997 60.452 483.669 60.06C484.359 59.6493 484.845 59.0707 485.125 58.324V56.588H481.513C479.497 56.588 478.489 57.2507 478.489 58.576C478.489 59.2107 478.741 59.7147 479.245 60.088C479.749 60.4613 480.449 60.648 481.345 60.648ZM507.897 42.224V63H504.537V61.068C503.958 61.7773 503.24 62.3093 502.381 62.664C501.541 63.0187 500.608 63.196 499.581 63.196C498.144 63.196 496.846 62.8787 495.689 62.244C494.55 61.6093 493.654 60.7133 493.001 59.556C492.348 58.38 492.021 57.036 492.021 55.524C492.021 54.012 492.348 52.6773 493.001 51.52C493.654 50.3627 494.55 49.4667 495.689 48.832C496.846 48.1973 498.144 47.88 499.581 47.88C500.57 47.88 501.476 48.048 502.297 48.384C503.118 48.72 503.818 49.224 504.397 49.896V42.224H507.897ZM500.001 60.2C500.841 60.2 501.597 60.0133 502.269 59.64C502.941 59.248 503.473 58.6973 503.865 57.988C504.257 57.2787 504.453 56.4573 504.453 55.524C504.453 54.5907 504.257 53.7693 503.865 53.06C503.473 52.3507 502.941 51.8093 502.269 51.436C501.597 51.044 500.841 50.848 500.001 50.848C499.161 50.848 498.405 51.044 497.733 51.436C497.061 51.8093 496.529 52.3507 496.137 53.06C495.745 53.7693 495.549 54.5907 495.549 55.524C495.549 56.4573 495.745 57.2787 496.137 57.988C496.529 58.6973 497.061 59.248 497.733 59.64C498.405 60.0133 499.161 60.2 500.001 60.2ZM512.476 48.048H515.976V63H512.476V48.048ZM514.24 45.584C513.605 45.584 513.073 45.388 512.644 44.996C512.214 44.5853 512 44.0813 512 43.484C512 42.8867 512.214 42.392 512.644 42C513.073 41.5893 513.605 41.384 514.24 41.384C514.874 41.384 515.406 41.58 515.836 41.972C516.265 42.3453 516.48 42.8213 516.48 43.4C516.48 44.016 516.265 44.5387 515.836 44.968C515.425 45.3787 514.893 45.584 514.24 45.584ZM529.053 47.88C530.939 47.88 532.451 48.4307 533.589 49.532C534.728 50.6333 535.297 52.2667 535.297 54.432V63H531.797V54.88C531.797 53.5733 531.489 52.5933 530.873 51.94C530.257 51.268 529.38 50.932 528.241 50.932C526.953 50.932 525.936 51.324 525.189 52.108C524.443 52.8733 524.069 53.984 524.069 55.44V63H520.569V48.048H523.901V49.98C524.48 49.2893 525.208 48.7667 526.085 48.412C526.963 48.0573 527.952 47.88 529.053 47.88ZM554.714 48.048V60.732C554.714 65.996 552.026 68.628 546.65 68.628C545.213 68.628 543.85 68.4413 542.562 68.068C541.274 67.7133 540.21 67.1907 539.37 66.5L540.938 63.868C541.591 64.4093 542.413 64.8387 543.402 65.156C544.41 65.492 545.427 65.66 546.454 65.66C548.097 65.66 549.301 65.2867 550.066 64.54C550.831 63.7933 551.214 62.6547 551.214 61.124V60.34C550.617 60.9933 549.889 61.488 549.03 61.824C548.171 62.16 547.229 62.328 546.202 62.328C544.783 62.328 543.495 62.0293 542.338 61.432C541.199 60.816 540.294 59.9573 539.622 58.856C538.969 57.7547 538.642 56.4947 538.642 55.076C538.642 53.6573 538.969 52.4067 539.622 51.324C540.294 50.2227 541.199 49.3733 542.338 48.776C543.495 48.1787 544.783 47.88 546.202 47.88C547.285 47.88 548.265 48.0573 549.142 48.412C550.038 48.7667 550.785 49.308 551.382 50.036V48.048H554.714ZM546.734 59.36C548.059 59.36 549.142 58.968 549.982 58.184C550.841 57.3813 551.27 56.3453 551.27 55.076C551.27 53.8253 550.841 52.808 549.982 52.024C549.142 51.24 548.059 50.848 546.734 50.848C545.39 50.848 544.289 51.24 543.43 52.024C542.59 52.808 542.17 53.8253 542.17 55.076C542.17 56.3453 542.59 57.3813 543.43 58.184C544.289 58.968 545.39 59.36 546.734 59.36ZM567.39 43.4H575.958C578.048 43.4 579.906 43.8107 581.53 44.632C583.154 45.4347 584.414 46.5827 585.31 48.076C586.206 49.5507 586.654 51.2587 586.654 53.2C586.654 55.1413 586.206 56.8587 585.31 58.352C584.414 59.8267 583.154 60.9747 581.53 61.796C579.906 62.5987 578.048 63 575.958 63H567.39V43.4ZM575.79 59.92C577.227 59.92 578.487 59.6493 579.57 59.108C580.671 58.548 581.511 57.764 582.09 56.756C582.687 55.7293 582.986 54.544 582.986 53.2C582.986 51.856 582.687 50.68 582.09 49.672C581.511 48.6453 580.671 47.8613 579.57 47.32C578.487 46.76 577.227 46.48 575.79 46.48H571.03V59.92H575.79ZM595.899 47.88C598.101 47.88 599.781 48.412 600.939 49.476C602.115 50.5213 602.703 52.108 602.703 54.236V63H599.399V61.18C598.969 61.8333 598.353 62.3373 597.551 62.692C596.767 63.028 595.815 63.196 594.695 63.196C593.575 63.196 592.595 63.0093 591.755 62.636C590.915 62.244 590.261 61.712 589.795 61.04C589.347 60.3493 589.123 59.5747 589.123 58.716C589.123 57.372 589.617 56.2987 590.607 55.496C591.615 54.6747 593.192 54.264 595.339 54.264H599.203V54.04C599.203 52.9947 598.885 52.192 598.251 51.632C597.635 51.072 596.711 50.792 595.479 50.792C594.639 50.792 593.808 50.9227 592.987 51.184C592.184 51.4453 591.503 51.8093 590.943 52.276L589.571 49.728C590.355 49.1307 591.297 48.6733 592.399 48.356C593.5 48.0387 594.667 47.88 595.899 47.88ZM595.423 60.648C596.3 60.648 597.075 60.452 597.747 60.06C598.437 59.6493 598.923 59.0707 599.203 58.324V56.588H595.591C593.575 56.588 592.567 57.2507 592.567 58.576C592.567 59.2107 592.819 59.7147 593.323 60.088C593.827 60.4613 594.527 60.648 595.423 60.648ZM615.482 47.88C616.938 47.88 618.236 48.1973 619.374 48.832C620.532 49.4667 621.437 50.3627 622.09 51.52C622.744 52.6773 623.07 54.012 623.07 55.524C623.07 57.036 622.744 58.38 622.09 59.556C621.437 60.7133 620.532 61.6093 619.374 62.244C618.236 62.8787 616.938 63.196 615.482 63.196C613.466 63.196 611.87 62.524 610.694 61.18V68.432H607.194V48.048H610.526V50.008C611.105 49.2987 611.814 48.7667 612.654 48.412C613.513 48.0573 614.456 47.88 615.482 47.88ZM615.09 60.2C616.378 60.2 617.433 59.7707 618.254 58.912C619.094 58.0533 619.514 56.924 619.514 55.524C619.514 54.124 619.094 52.9947 618.254 52.136C617.433 51.2773 616.378 50.848 615.09 50.848C614.25 50.848 613.494 51.044 612.822 51.436C612.15 51.8093 611.618 52.3507 611.226 53.06C610.834 53.7693 610.638 54.5907 610.638 55.524C610.638 56.4573 610.834 57.2787 611.226 57.988C611.618 58.6973 612.15 59.248 612.822 59.64C613.494 60.0133 614.25 60.2 615.09 60.2ZM634.678 47.88C636.134 47.88 637.431 48.1973 638.57 48.832C639.727 49.4667 640.632 50.3627 641.286 51.52C641.939 52.6773 642.266 54.012 642.266 55.524C642.266 57.036 641.939 58.38 641.286 59.556C640.632 60.7133 639.727 61.6093 638.57 62.244C637.431 62.8787 636.134 63.196 634.678 63.196C632.662 63.196 631.066 62.524 629.89 61.18V68.432H626.39V48.048H629.722V50.008C630.3 49.2987 631.01 48.7667 631.85 48.412C632.708 48.0573 633.651 47.88 634.678 47.88ZM634.286 60.2C635.574 60.2 636.628 59.7707 637.45 58.912C638.29 58.0533 638.71 56.924 638.71 55.524C638.71 54.124 638.29 52.9947 637.45 52.136C636.628 51.2773 635.574 50.848 634.286 50.848C633.446 50.848 632.69 51.044 632.018 51.436C631.346 51.8093 630.814 52.3507 630.422 53.06C630.03 53.7693 629.834 54.5907 629.834 55.524C629.834 56.4573 630.03 57.2787 630.422 57.988C630.814 58.6973 631.346 59.248 632.018 59.64C632.69 60.0133 633.446 60.2 634.286 60.2ZM657.635 46.48H651.139V43.4H667.771V46.48H661.275V63H657.635V46.48ZM682.692 55.608C682.692 55.8507 682.673 56.196 682.636 56.644H670.904C671.109 57.7453 671.641 58.6227 672.5 59.276C673.377 59.9107 674.46 60.228 675.748 60.228C677.391 60.228 678.744 59.6867 679.808 58.604L681.684 60.76C681.012 61.5627 680.163 62.1693 679.136 62.58C678.109 62.9907 676.952 63.196 675.664 63.196C674.021 63.196 672.575 62.8693 671.324 62.216C670.073 61.5627 669.103 60.6573 668.412 59.5C667.74 58.324 667.404 56.9987 667.404 55.524C667.404 54.068 667.731 52.7613 668.384 51.604C669.056 50.428 669.98 49.5133 671.156 48.86C672.332 48.2067 673.657 47.88 675.132 47.88C676.588 47.88 677.885 48.2067 679.024 48.86C680.181 49.4947 681.077 50.4 681.712 51.576C682.365 52.7333 682.692 54.0773 682.692 55.608ZM675.132 50.68C674.012 50.68 673.06 51.016 672.276 51.688C671.511 52.3413 671.044 53.2187 670.876 54.32H679.36C679.211 53.2373 678.753 52.36 677.988 51.688C677.223 51.016 676.271 50.68 675.132 50.68ZM691.356 47.88C693.558 47.88 695.238 48.412 696.396 49.476C697.572 50.5213 698.16 52.108 698.16 54.236V63H694.856V61.18C694.426 61.8333 693.81 62.3373 693.008 62.692C692.224 63.028 691.272 63.196 690.152 63.196C689.032 63.196 688.052 63.0093 687.212 62.636C686.372 62.244 685.718 61.712 685.252 61.04C684.804 60.3493 684.58 59.5747 684.58 58.716C684.58 57.372 685.074 56.2987 686.064 55.496C687.072 54.6747 688.649 54.264 690.796 54.264H694.66V54.04C694.66 52.9947 694.342 52.192 693.708 51.632C693.092 51.072 692.168 50.792 690.936 50.792C690.096 50.792 689.265 50.9227 688.444 51.184C687.641 51.4453 686.96 51.8093 686.4 52.276L685.028 49.728C685.812 49.1307 686.754 48.6733 687.856 48.356C688.957 48.0387 690.124 47.88 691.356 47.88ZM690.88 60.648C691.757 60.648 692.532 60.452 693.204 60.06C693.894 59.6493 694.38 59.0707 694.66 58.324V56.588H691.048C689.032 56.588 688.024 57.2507 688.024 58.576C688.024 59.2107 688.276 59.7147 688.78 60.088C689.284 60.4613 689.984 60.648 690.88 60.648ZM721.523 47.88C723.409 47.88 724.902 48.4307 726.003 49.532C727.105 50.6147 727.655 52.248 727.655 54.432V63H724.155V54.88C724.155 53.5733 723.866 52.5933 723.287 51.94C722.709 51.268 721.878 50.932 720.795 50.932C719.619 50.932 718.677 51.324 717.967 52.108C717.258 52.8733 716.903 53.9747 716.903 55.412V63H713.403V54.88C713.403 53.5733 713.114 52.5933 712.535 51.94C711.957 51.268 711.126 50.932 710.043 50.932C708.849 50.932 707.897 51.3147 707.187 52.08C706.497 52.8453 706.151 53.956 706.151 55.412V63H702.651V48.048H705.983V49.952C706.543 49.28 707.243 48.7667 708.083 48.412C708.923 48.0573 709.857 47.88 710.883 47.88C712.003 47.88 712.993 48.0947 713.851 48.524C714.729 48.9347 715.419 49.5507 715.923 50.372C716.539 49.588 717.333 48.9813 718.303 48.552C719.274 48.104 720.347 47.88 721.523 47.88ZM736.748 63.196C735.535 63.196 734.349 63.0373 733.192 62.72C732.035 62.4027 731.111 62.0013 730.42 61.516L731.764 58.856C732.436 59.304 733.239 59.668 734.172 59.948C735.124 60.2093 736.057 60.34 736.972 60.34C739.063 60.34 740.108 59.7893 740.108 58.688C740.108 58.1653 739.837 57.8013 739.296 57.596C738.773 57.3907 737.924 57.1947 736.748 57.008C735.516 56.8213 734.508 56.6067 733.724 56.364C732.959 56.1213 732.287 55.7013 731.708 55.104C731.148 54.488 730.868 53.6387 730.868 52.556C730.868 51.1373 731.456 50.008 732.632 49.168C733.827 48.3093 735.432 47.88 737.448 47.88C738.475 47.88 739.501 48.0013 740.528 48.244C741.555 48.468 742.395 48.776 743.048 49.168L741.704 51.828C740.435 51.0813 739.007 50.708 737.42 50.708C736.393 50.708 735.609 50.8667 735.068 51.184C734.545 51.4827 734.284 51.884 734.284 52.388C734.284 52.948 734.564 53.3493 735.124 53.592C735.703 53.816 736.589 54.0307 737.784 54.236C738.979 54.4227 739.959 54.6373 740.724 54.88C741.489 55.1227 742.143 55.5333 742.684 56.112C743.244 56.6907 743.524 57.512 743.524 58.576C743.524 59.976 742.917 61.096 741.704 61.936C740.491 62.776 738.839 63.196 736.748 63.196ZM759.988 47.88C762.191 47.88 763.871 48.412 765.028 49.476C766.204 50.5213 766.792 52.108 766.792 54.236V63H763.488V61.18C763.059 61.8333 762.443 62.3373 761.64 62.692C760.856 63.028 759.904 63.196 758.784 63.196C757.664 63.196 756.684 63.0093 755.844 62.636C755.004 62.244 754.351 61.712 753.884 61.04C753.436 60.3493 753.212 59.5747 753.212 58.716C753.212 57.372 753.707 56.2987 754.696 55.496C755.704 54.6747 757.282 54.264 759.428 54.264H763.292V54.04C763.292 52.9947 762.975 52.192 762.34 51.632C761.724 51.072 760.8 50.792 759.568 50.792C758.728 50.792 757.898 50.9227 757.076 51.184C756.274 51.4453 755.592 51.8093 755.032 52.276L753.66 49.728C754.444 49.1307 755.387 48.6733 756.488 48.356C757.59 48.0387 758.756 47.88 759.988 47.88ZM759.512 60.648C760.39 60.648 761.164 60.452 761.836 60.06C762.527 59.6493 763.012 59.0707 763.292 58.324V56.588H759.68C757.664 56.588 756.656 57.2507 756.656 58.576C756.656 59.2107 756.908 59.7147 757.412 60.088C757.916 60.4613 758.616 60.648 759.512 60.648ZM779.768 47.88C781.654 47.88 783.166 48.4307 784.304 49.532C785.443 50.6333 786.012 52.2667 786.012 54.432V63H782.512V54.88C782.512 53.5733 782.204 52.5933 781.588 51.94C780.972 51.268 780.095 50.932 778.956 50.932C777.668 50.932 776.651 51.324 775.904 52.108C775.158 52.8733 774.784 53.984 774.784 55.44V63H771.284V48.048H774.616V49.98C775.195 49.2893 775.923 48.7667 776.8 48.412C777.678 48.0573 778.667 47.88 779.768 47.88ZM805.233 42.224V63H801.873V61.068C801.294 61.7773 800.576 62.3093 799.717 62.664C798.877 63.0187 797.944 63.196 796.917 63.196C795.48 63.196 794.182 62.8787 793.025 62.244C791.886 61.6093 790.99 60.7133 790.337 59.556C789.684 58.38 789.357 57.036 789.357 55.524C789.357 54.012 789.684 52.6773 790.337 51.52C790.99 50.3627 791.886 49.4667 793.025 48.832C794.182 48.1973 795.48 47.88 796.917 47.88C797.906 47.88 798.812 48.048 799.633 48.384C800.454 48.72 801.154 49.224 801.733 49.896V42.224H805.233ZM797.337 60.2C798.177 60.2 798.933 60.0133 799.605 59.64C800.277 59.248 800.809 58.6973 801.201 57.988C801.593 57.2787 801.789 56.4573 801.789 55.524C801.789 54.5907 801.593 53.7693 801.201 53.06C800.809 52.3507 800.277 51.8093 799.605 51.436C798.933 51.044 798.177 50.848 797.337 50.848C796.497 50.848 795.741 51.044 795.069 51.436C794.397 51.8093 793.865 52.3507 793.473 53.06C793.081 53.7693 792.885 54.5907 792.885 55.524C792.885 56.4573 793.081 57.2787 793.473 57.988C793.865 58.6973 794.397 59.248 795.069 59.64C795.741 60.0133 796.497 60.2 797.337 60.2ZM832.586 59.948V63H817.886V43.4H832.194V46.452H821.526V51.548H830.99V54.544H821.526V59.948H832.586ZM844.792 47.88C846.677 47.88 848.189 48.4307 849.328 49.532C850.466 50.6333 851.036 52.2667 851.036 54.432V63H847.536V54.88C847.536 53.5733 847.228 52.5933 846.612 51.94C845.996 51.268 845.118 50.932 843.98 50.932C842.692 50.932 841.674 51.324 840.928 52.108C840.181 52.8733 839.808 53.984 839.808 55.44V63H836.308V48.048H839.64V49.98C840.218 49.2893 840.946 48.7667 841.824 48.412C842.701 48.0573 843.69 47.88 844.792 47.88ZM864.464 62.188C864.053 62.524 863.549 62.776 862.952 62.944C862.373 63.112 861.757 63.196 861.104 63.196C859.461 63.196 858.192 62.7667 857.296 61.908C856.4 61.0493 855.952 59.7987 855.952 58.156V50.96H853.488V48.16H855.952V44.744H859.452V48.16H863.456V50.96H859.452V58.072C859.452 58.8 859.629 59.36 859.984 59.752C860.338 60.1253 860.852 60.312 861.524 60.312C862.308 60.312 862.961 60.1067 863.484 59.696L864.464 62.188ZM880.907 55.608C880.907 55.8507 880.888 56.196 880.851 56.644H869.119C869.324 57.7453 869.856 58.6227 870.715 59.276C871.592 59.9107 872.675 60.228 873.963 60.228C875.605 60.228 876.959 59.6867 878.023 58.604L879.899 60.76C879.227 61.5627 878.377 62.1693 877.351 62.58C876.324 62.9907 875.167 63.196 873.879 63.196C872.236 63.196 870.789 62.8693 869.539 62.216C868.288 61.5627 867.317 60.6573 866.627 59.5C865.955 58.324 865.619 56.9987 865.619 55.524C865.619 54.068 865.945 52.7613 866.599 51.604C867.271 50.428 868.195 49.5133 869.371 48.86C870.547 48.2067 871.872 47.88 873.347 47.88C874.803 47.88 876.1 48.2067 877.239 48.86C878.396 49.4947 879.292 50.4 879.927 51.576C880.58 52.7333 880.907 54.0773 880.907 55.608ZM873.347 50.68C872.227 50.68 871.275 51.016 870.491 51.688C869.725 52.3413 869.259 53.2187 869.091 54.32H877.575C877.425 53.2373 876.968 52.36 876.203 51.688C875.437 51.016 874.485 50.68 873.347 50.68ZM887.601 50.232C888.609 48.664 890.382 47.88 892.921 47.88V51.212C892.622 51.156 892.351 51.128 892.109 51.128C890.746 51.128 889.682 51.5293 888.917 52.332C888.151 53.116 887.769 54.2547 887.769 55.748V63H884.269V48.048H887.601V50.232ZM904.178 47.88C905.634 47.88 906.931 48.1973 908.07 48.832C909.227 49.4667 910.132 50.3627 910.786 51.52C911.439 52.6773 911.766 54.012 911.766 55.524C911.766 57.036 911.439 58.38 910.786 59.556C910.132 60.7133 909.227 61.6093 908.07 62.244C906.931 62.8787 905.634 63.196 904.178 63.196C902.162 63.196 900.566 62.524 899.39 61.18V68.432H895.89V48.048H899.222V50.008C899.8 49.2987 900.51 48.7667 901.35 48.412C902.208 48.0573 903.151 47.88 904.178 47.88ZM903.786 60.2C905.074 60.2 906.128 59.7707 906.95 58.912C907.79 58.0533 908.21 56.924 908.21 55.524C908.21 54.124 907.79 52.9947 906.95 52.136C906.128 51.2773 905.074 50.848 903.786 50.848C902.946 50.848 902.19 51.044 901.518 51.436C900.846 51.8093 900.314 52.3507 899.922 53.06C899.53 53.7693 899.334 54.5907 899.334 55.524C899.334 56.4573 899.53 57.2787 899.922 57.988C900.314 58.6973 900.846 59.248 901.518 59.64C902.19 60.0133 902.946 60.2 903.786 60.2ZM918.417 50.232C919.425 48.664 921.198 47.88 923.737 47.88V51.212C923.438 51.156 923.168 51.128 922.925 51.128C921.562 51.128 920.498 51.5293 919.733 52.332C918.968 53.116 918.585 54.2547 918.585 55.748V63H915.085V48.048H918.417V50.232ZM926.706 48.048H930.206V63H926.706V48.048ZM928.47 45.584C927.835 45.584 927.303 45.388 926.874 44.996C926.445 44.5853 926.23 44.0813 926.23 43.484C926.23 42.8867 926.445 42.392 926.874 42C927.303 41.5893 927.835 41.384 928.47 41.384C929.105 41.384 929.637 41.58 930.066 41.972C930.495 42.3453 930.71 42.8213 930.71 43.4C930.71 44.016 930.495 44.5387 930.066 44.968C929.655 45.3787 929.123 45.584 928.47 45.584ZM939.42 63.196C938.207 63.196 937.021 63.0373 935.864 62.72C934.707 62.4027 933.783 62.0013 933.092 61.516L934.436 58.856C935.108 59.304 935.911 59.668 936.844 59.948C937.796 60.2093 938.729 60.34 939.644 60.34C941.735 60.34 942.78 59.7893 942.78 58.688C942.78 58.1653 942.509 57.8013 941.968 57.596C941.445 57.3907 940.596 57.1947 939.42 57.008C938.188 56.8213 937.18 56.6067 936.396 56.364C935.631 56.1213 934.959 55.7013 934.38 55.104C933.82 54.488 933.54 53.6387 933.54 52.556C933.54 51.1373 934.128 50.008 935.304 49.168C936.499 48.3093 938.104 47.88 940.12 47.88C941.147 47.88 942.173 48.0013 943.2 48.244C944.227 48.468 945.067 48.776 945.72 49.168L944.376 51.828C943.107 51.0813 941.679 50.708 940.092 50.708C939.065 50.708 938.281 50.8667 937.74 51.184C937.217 51.4827 936.956 51.884 936.956 52.388C936.956 52.948 937.236 53.3493 937.796 53.592C938.375 53.816 939.261 54.0307 940.456 54.236C941.651 54.4227 942.631 54.6373 943.396 54.88C944.161 55.1227 944.815 55.5333 945.356 56.112C945.916 56.6907 946.196 57.512 946.196 58.576C946.196 59.976 945.589 61.096 944.376 61.936C943.163 62.776 941.511 63.196 939.42 63.196ZM963.266 55.608C963.266 55.8507 963.247 56.196 963.21 56.644H951.478C951.683 57.7453 952.215 58.6227 953.074 59.276C953.951 59.9107 955.034 60.228 956.322 60.228C957.965 60.228 959.318 59.6867 960.382 58.604L962.258 60.76C961.586 61.5627 960.737 62.1693 959.71 62.58C958.683 62.9907 957.526 63.196 956.238 63.196C954.595 63.196 953.149 62.8693 951.898 62.216C950.647 61.5627 949.677 60.6573 948.986 59.5C948.314 58.324 947.978 56.9987 947.978 55.524C947.978 54.068 948.305 52.7613 948.958 51.604C949.63 50.428 950.554 49.5133 951.73 48.86C952.906 48.2067 954.231 47.88 955.706 47.88C957.162 47.88 958.459 48.2067 959.598 48.86C960.755 49.4947 961.651 50.4 962.286 51.576C962.939 52.7333 963.266 54.0773 963.266 55.608ZM955.706 50.68C954.586 50.68 953.634 51.016 952.85 51.688C952.085 52.3413 951.618 53.2187 951.45 54.32H959.934C959.785 53.2373 959.327 52.36 958.562 51.688C957.797 51.016 956.845 50.68 955.706 50.68ZM971.248 63.196C970.035 63.196 968.849 63.0373 967.692 62.72C966.535 62.4027 965.611 62.0013 964.92 61.516L966.264 58.856C966.936 59.304 967.739 59.668 968.672 59.948C969.624 60.2093 970.557 60.34 971.472 60.34C973.563 60.34 974.608 59.7893 974.608 58.688C974.608 58.1653 974.337 57.8013 973.796 57.596C973.273 57.3907 972.424 57.1947 971.248 57.008C970.016 56.8213 969.008 56.6067 968.224 56.364C967.459 56.1213 966.787 55.7013 966.208 55.104C965.648 54.488 965.368 53.6387 965.368 52.556C965.368 51.1373 965.956 50.008 967.132 49.168C968.327 48.3093 969.932 47.88 971.948 47.88C972.975 47.88 974.001 48.0013 975.028 48.244C976.055 48.468 976.895 48.776 977.548 49.168L976.204 51.828C974.935 51.0813 973.507 50.708 971.92 50.708C970.893 50.708 970.109 50.8667 969.568 51.184C969.045 51.4827 968.784 51.884 968.784 52.388C968.784 52.948 969.064 53.3493 969.624 53.592C970.203 53.816 971.089 54.0307 972.284 54.236C973.479 54.4227 974.459 54.6373 975.224 54.88C975.989 55.1227 976.643 55.5333 977.184 56.112C977.744 56.6907 978.024 57.512 978.024 58.576C978.024 59.976 977.417 61.096 976.204 61.936C974.991 62.776 973.339 63.196 971.248 63.196Z" fill="white"/>
</g>
<defs>
<filter id="filter0_d_0_1398" x="0.693604" y="0.120117" width="1259.31" height="176.88" filterUnits="userSpaceOnUse" color-interpolation-filters="sRGB">
<feFlood flood-opacity="0" result="BackgroundImageFix"/>
<feColorMatrix in="SourceAlpha" type="matrix" values="0 0 0 0 0 0 0 0 0 0 0 0 0 0 0 0 0 0 127 0" result="hardAlpha"/>
<feOffset dy="4"/>
<feGaussianBlur stdDeviation="2"/>
<feComposite in2="hardAlpha" operator="out"/>
<feColorMatrix type="matrix" values="0 0 0 0 0.00392157 0 0 0 0 0.121569 0 0 0 0 0.309804 0 0 0 1 0"/>
<feBlend mode="normal" in2="BackgroundImageFix" result="effect1_dropShadow_0_1398"/>
<feBlend mode="normal" in="SourceGraphic" in2="effect1_dropShadow_0_1398" result="shape"/>
</filter>
<filter id="filter1_d_0_1398" x="243.112" y="8.38379" width="771.912" height="101.244" filterUnits="userSpaceOnUse" color-interpolation-filters="sRGB">
<feFlood flood-opacity="0" result="BackgroundImageFix"/>
<feColorMatrix in="SourceAlpha" type="matrix" values="0 0 0 0 0 0 0 0 0 0 0 0 0 0 0 0 0 0 127 0" result="hardAlpha"/>
<feOffset dy="4"/>
<feGaussianBlur stdDeviation="18.5"/>
<feComposite in2="hardAlpha" operator="out"/>
<feColorMatrix type="matrix" values="0 0 0 0 1 0 0 0 0 1 0 0 0 0 1 0 0 0 0.25 0"/>
<feBlend mode="normal" in2="BackgroundImageFix" result="effect1_dropShadow_0_1398"/>
<feBlend mode="normal" in="SourceGraphic" in2="effect1_dropShadow_0_1398" result="shape"/>
</filter>
<linearGradient id="paint0_linear_0_1398" x1="21" y1="89" x2="1256" y2="89" gradientUnits="userSpaceOnUse">
<stop stop-color="#091E3A"/>
<stop offset="0.5" stop-color="#2F80ED"/>
<stop offset="1" stop-color="#000B48"/>
</linearGradient>
<clipPath id="clip0_0_1398">
<rect width="148.662" height="34.0594" fill="white" transform="translate(148 98.7227)"/>
</clipPath>
<clipPath id="clip1_0_1398">
<rect width="196.564" height="45.9406" fill="white" transform="translate(652.625 86.8418)"/>
</clipPath>
<clipPath id="clip2_0_1398">
<rect width="251.9" height="75.2475" fill="white" transform="translate(348.694 71.792)"/>
</clipPath>
<clipPath id="clip3_0_1398">
<rect width="209.779" height="80" fill="white" transform="translate(901.221 71)"/>
</clipPath>
</defs>
</svg>
